<svg xmlns="http://www.w3.org/2000/svg" width="46" height="29.016" viewBox="0 0 46 29.016"><defs><style>.a{fill:#f95a48;}</style></defs><g transform="translate(0 6.832)"><path class="a" d="M41.586-4.781h3.172a1.586,1.586,0,0,0-1.586-1.586H40.793a.793.793,0,0,1-.561-.232L40-6.832v.465A1.586,1.586,0,0,0,41.586-4.781Zm0,0" transform="translate(-36.828)"/><path class="a" d="M1.586-4.781h.441a3.137,3.137,0,0,1-.441-1.586H.793A.793.793,0,0,1,.232-6.6L0-6.832v.465A1.586,1.586,0,0,0,1.586-4.781Zm0,0"/><path class="a" d="M3.069,2.2l-1.3,6.516,2.1.421a1.6,1.6,0,0,0,1.3-.317l3.1-2.48A.793.793,0,0,1,9.55,6.86l1.586,12.69a.7.7,0,0,1,.006.1v7.931h1.718l1.455-8V15.683H15.9v3.172h8.791a7.552,7.552,0,0,0,3.886-1.076,9.142,9.142,0,0,1,4.7-1.3h1.443a7.1,7.1,0,0,1-.584-2.8V10.924h1.586v2.753a5.58,5.58,0,0,0,2.7,4.759l4.851,2.911a.794.794,0,0,1,.361.872L42.3,27.579h1.551l2.078-7.619-2.106-1.581a2.388,2.388,0,0,1-.952-1.9V7.752A5.558,5.558,0,0,0,37.315,2.2H25.852a10.248,10.248,0,0,1-4.187-.889L18.218-.22a8.672,8.672,0,0,0-3.543-.752H10.7A3.137,3.137,0,0,1,11.143.614v.793a.793.793,0,0,1-.793.793Zm0,0" transform="translate(-1.626 -5.395)"/><path class="a" d="M540.793,69.027H540v1.586h.793a.793.793,0,0,1,.793.793v9.517h1.586V71.407A2.379,2.379,0,0,0,540.793,69.027Zm0,0" transform="translate(-497.172 -69.843)"/></g></svg>