<svg xmlns="http://www.w3.org/2000/svg" width="17.063" height="14.438" viewBox="0 0 17.063 14.438"><defs><style>.a{fill:#0a0a0b;}</style></defs><g transform="translate(-1.969 -3.281)"><path class="a" d="M12.276,15.422a1.643,1.643,0,0,1,3.011,0h3.088a.658.658,0,0,1,.656.656h0a.658.658,0,0,1-.656.656H15.287a1.643,1.643,0,0,1-3.011,0H2.625a.658.658,0,0,1-.656-.656h0a.658.658,0,0,1,.656-.656Z"/><path class="a" d="M5.713,9.844a1.643,1.643,0,0,1,3.011,0h9.651a.658.658,0,0,1,.656.656h0a.658.658,0,0,1-.656.656H8.724a1.643,1.643,0,0,1-3.011,0H2.625a.658.658,0,0,1-.656-.656h0a.658.658,0,0,1,.656-.656Z"/><path class="a" d="M12.276,4.266a1.643,1.643,0,0,1,3.011,0h3.088a.658.658,0,0,1,.656.656h0a.658.658,0,0,1-.656.656H15.287a1.643,1.643,0,0,1-3.011,0H2.625a.658.658,0,0,1-.656-.656h0a.658.658,0,0,1,.656-.656Z"/></g></svg>