<svg xmlns="http://www.w3.org/2000/svg" width="168" height="38.564" viewBox="0 0 168 38.564"><defs><style>.a{fill:#fff;}.b{fill:#f95a48;}.c{opacity:0.5;}</style></defs><g transform="translate(-6.8 -61.441)"><g transform="translate(6.8 61.441)"><path class="a" d="M49.539,97.363A2.639,2.639,0,1,1,46.9,94.722,2.642,2.642,0,0,1,49.539,97.363ZM28.8,93.485a3.26,3.26,0,1,0,0,6.52,3.2,3.2,0,0,0,3.26-3.192A3.316,3.316,0,0,0,28.8,93.485ZM53,70.18a2.635,2.635,0,0,0-1.958-.979l-2.474-.171-1.336,2.254,3.324.1c1.249,0,1.021,1.328.77,2.531a54.53,54.53,0,0,1-2.163,8.345c-.042.118-1.025,2.918-4.85,2.918H29.924a2.135,2.135,0,0,1-2.038-1.651,48.018,48.018,0,0,1-1.412-6.793,39.769,39.769,0,0,0-1.214-4.7,1.028,1.028,0,0,1,.926-1.385l13.757.414,2.152-2.482-17.472-1.2a2.331,2.331,0,0,1-1.878-1.249,19.26,19.26,0,0,0-2.083-3.2,3.958,3.958,0,0,0-3.226-1.5h-2.71a2.353,2.353,0,0,0-2.292,2.33,2.317,2.317,0,0,0,2.2,2.478H17.48a1.219,1.219,0,0,1,.99.516,29.5,29.5,0,0,1,2.664,4.842c3.123,6.816,3.074,13.062,5.366,16.178a13.027,13.027,0,0,0,2.573,2.668A14.891,14.891,0,0,0,35.4,93.147a24.958,24.958,0,0,0,6.516.3q1.611-.12,3.2-.395a31.113,31.113,0,0,0,3.176-.71,1.244,1.244,0,0,0,.725-1.693,1.1,1.1,0,0,0-1.271-.664l-.011,0a28.6,28.6,0,0,1-2.941.531c-1,.129-2,.213-3,.247a22.8,22.8,0,0,1-5.882-.5,12.335,12.335,0,0,1-5.116-2.395s10.519-.372,14.09-.493a6.383,6.383,0,0,0,6.148-4.3c.266-.558,1.1-4.273,2.144-8.736C53.615,72.457,53.721,71.11,53,70.18Z" transform="translate(-5.424 -61.441)"/><path class="b" d="M44.693,63.426a.961.961,0,0,1,.827,1.453L36.135,80.715l-.125.209a2.5,2.5,0,0,1-2,1.222c-.053,0-.106,0-.159,0a2.494,2.494,0,0,1-2.091-1.131l-4.148-7.1a1.12,1.12,0,0,1,.323-1.552,1.1,1.1,0,0,1,.543-.182c.023,0,.049,0,.072,0a1.115,1.115,0,0,1,.626.19l4.2,3.586,10.6-12.227a.953.953,0,0,1,.645-.307Z" transform="translate(-1.757 -60.955)"/><path class="a" d="M18.477,69.36h6.766v6.77H18.477Zm-.8,15.517h5.442V79.436H17.677Zm-6.819-7.753h4.58v-4.58h-4.58Zm1.188,5.7h3.389V79.436H12.045ZM6.8,79.481H9.157V77.125H6.8Z" transform="translate(-6.8 -59.505)"/></g><g transform="translate(59.018 70.624)"><path class="a" d="M52.309,75.219H51.015v5.04H48.761V68.82h2.254v5.837l5.108-5.837H58.81l-4.793,5.271,5.138,6.167H56.271Z" transform="translate(-48.761 -68.82)"/><path class="a" d="M63.254,73.644a3.07,3.07,0,0,0-1.427-.266,2.443,2.443,0,0,0-1.427.364,1.406,1.406,0,0,0-.546,1.161v5.355H57.766V68.82h2.087v4.69h.216a2.409,2.409,0,0,1,.971-1.343,3.042,3.042,0,0,1,1.7-.448,5.676,5.676,0,0,1,1.267.133,2.43,2.43,0,0,1,.979.455,2.106,2.106,0,0,1,.63.869,3.683,3.683,0,0,1,.224,1.378v5.7H63.754v-5.5A1.151,1.151,0,0,0,63.254,73.644Z" transform="translate(-46.56 -68.82)"/><path class="a" d="M68,77.966a2.456,2.456,0,0,0,1.275.266,4.782,4.782,0,0,0,.778-.065,1.958,1.958,0,0,0,.687-.25,1.5,1.5,0,0,0,.5-.5,1.6,1.6,0,0,0,.216-.812V71.351h2.087V79.64H71.463V78.1h-.231a2.366,2.366,0,0,1-1.063,1.343,3.39,3.39,0,0,1-1.757.448,5.187,5.187,0,0,1-1.211-.133,2.2,2.2,0,0,1-.93-.455,2.15,2.15,0,0,1-.6-.869,3.773,3.773,0,0,1-.216-1.378v-5.7h2.106v5.5A1.229,1.229,0,0,0,68,77.966Z" transform="translate(-44.679 -68.202)"/><path class="a" d="M79.121,73.241l-1.127-.015a4.209,4.209,0,0,0-1.267.106,1.928,1.928,0,0,0-.8.421,1.6,1.6,0,0,0-.433.713,3.376,3.376,0,0,0-.133.979V79.64H73.27V71.351h2.087v2.155h.216a4.956,4.956,0,0,1,.357-.93,2.16,2.16,0,0,1,.531-.672,2.206,2.206,0,0,1,.8-.414,4.121,4.121,0,0,1,1.169-.14h.694v1.89Z" transform="translate(-42.77 -68.202)"/><path class="a" d="M80.53,76.008v.015a3.435,3.435,0,0,0,.182,1.1A1.584,1.584,0,0,0,81.9,78.179a4.272,4.272,0,0,0,.953.1,3.234,3.234,0,0,0,1.393-.266,1.274,1.274,0,0,0,.679-1.063h2.087a3.6,3.6,0,0,1-.406,1.419,2.647,2.647,0,0,1-.854.918,3.576,3.576,0,0,1-1.26.5,8.389,8.389,0,0,1-1.658.148,7.418,7.418,0,0,1-1.882-.216A3.289,3.289,0,0,1,79.563,79a3.1,3.1,0,0,1-.846-1.336,6.478,6.478,0,0,1-.281-2.072,6.94,6.94,0,0,1,.281-2.129,3.132,3.132,0,0,1,.839-1.366,3.185,3.185,0,0,1,1.378-.729,7.4,7.4,0,0,1,1.882-.216,4.735,4.735,0,0,1,3.108.9,3.555,3.555,0,0,1,1.085,2.892V76H80.53Zm4.376-1.028a3.136,3.136,0,0,0-.148-1.044,1.614,1.614,0,0,0-.421-.664,1.584,1.584,0,0,0-.664-.357,3.245,3.245,0,0,0-.869-.106,3.94,3.94,0,0,0-.869.091,1.771,1.771,0,0,0-.706.323,1.669,1.669,0,0,0-.482.638,2.979,2.979,0,0,0-.216,1.051v.065h4.376Z" transform="translate(-41.507 -68.252)"/><path class="a" d="M88.389,76.008v.015a3.435,3.435,0,0,0,.182,1.1,1.584,1.584,0,0,0,1.184,1.051,4.272,4.272,0,0,0,.953.1,3.234,3.234,0,0,0,1.393-.266,1.274,1.274,0,0,0,.679-1.063h2.087a3.6,3.6,0,0,1-.406,1.419,2.647,2.647,0,0,1-.854.918,3.576,3.576,0,0,1-1.26.5,8.389,8.389,0,0,1-1.658.148,7.418,7.418,0,0,1-1.882-.216A3.289,3.289,0,0,1,87.421,79a3.1,3.1,0,0,1-.846-1.336,6.478,6.478,0,0,1-.281-2.072,6.94,6.94,0,0,1,.281-2.129,3.132,3.132,0,0,1,.839-1.366,3.185,3.185,0,0,1,1.378-.729,7.4,7.4,0,0,1,1.882-.216,4.735,4.735,0,0,1,3.108.9,3.555,3.555,0,0,1,1.085,2.892V76H88.389Zm4.376-1.028a3.136,3.136,0,0,0-.148-1.044,1.614,1.614,0,0,0-.421-.664,1.584,1.584,0,0,0-.664-.357,3.246,3.246,0,0,0-.869-.106,3.94,3.94,0,0,0-.869.091,1.771,1.771,0,0,0-.706.323,1.669,1.669,0,0,0-.482.638,2.979,2.979,0,0,0-.216,1.051v.065h4.376Z" transform="translate(-39.586 -68.252)"/></g><g transform="translate(119.885 70.621)"><path class="a" d="M99.926,80.258H97.671V68.82h1.723l4.66,5.188,4.592-5.188h1.708V80.258H108.1V72.35l-4.08,4.41-4.095-4.444Z" transform="translate(-97.671 -68.817)"/><path class="a" d="M109.806,79.3a2.36,2.36,0,0,1-.812-1.981,2.829,2.829,0,0,1,.159-.937,2.041,2.041,0,0,1,.531-.812,2.677,2.677,0,0,1,1.021-.573,5.14,5.14,0,0,1,1.609-.216c.33,0,.622,0,.869.008s.482.015.694.027l.622.034.645.034v-.664a1.265,1.265,0,0,0-.44-1.078,2.46,2.46,0,0,0-1.45-.33,2.724,2.724,0,0,0-1.351.266,1.426,1.426,0,0,0-.588,1.078H109.26a4.1,4.1,0,0,1,.372-1.427,2.453,2.453,0,0,1,.789-.93,3.225,3.225,0,0,1,1.218-.5,8.282,8.282,0,0,1,1.651-.148,5.1,5.1,0,0,1,2.911.713,2.634,2.634,0,0,1,1.036,2.338v5.487h-2.087V78.213h-.216a2.291,2.291,0,0,1-1.112,1.3,3.914,3.914,0,0,1-1.856.421A3.4,3.4,0,0,1,109.806,79.3Zm3.9-1.028a2.007,2.007,0,0,0,.721-.273,1.6,1.6,0,0,0,.512-.531,1.624,1.624,0,0,0,.2-.846v-.531c-.387-.023-.748-.038-1.085-.049s-.645-.015-.918-.015a4.649,4.649,0,0,0-1.063.1,1.606,1.606,0,0,0-.6.258.774.774,0,0,0-.273.364,1.388,1.388,0,0,0-.065.44.96.96,0,0,0,.433.9,2.629,2.629,0,0,0,1.309.258A4.68,4.68,0,0,0,113.711,78.269Z" transform="translate(-94.904 -68.247)"/><path class="a" d="M122.732,73.241l-1.127-.015a4.209,4.209,0,0,0-1.268.106,1.927,1.927,0,0,0-.8.421,1.6,1.6,0,0,0-.433.713,3.376,3.376,0,0,0-.133.979V79.64H116.88V71.351h2.087v2.155h.216a4.955,4.955,0,0,1,.357-.93,2.16,2.16,0,0,1,.531-.672,2.206,2.206,0,0,1,.8-.414,4.121,4.121,0,0,1,1.169-.14h.694v1.89Z" transform="translate(-92.976 -68.198)"/><path class="a" d="M128.036,71.969h2.47l-3.351,3.715,3.548,4.577h-2.455l-2.687-3.613h-1.127v3.613h-2.072V68.823h2.072v7.343Z" transform="translate(-91.636 -68.816)"/><path class="a" d="M131.383,76.008v.015a3.436,3.436,0,0,0,.182,1.1,1.584,1.584,0,0,0,1.184,1.051,4.272,4.272,0,0,0,.953.1,3.233,3.233,0,0,0,1.393-.266,1.274,1.274,0,0,0,.679-1.063h2.087a3.594,3.594,0,0,1-.406,1.419,2.647,2.647,0,0,1-.854.918,3.576,3.576,0,0,1-1.26.5,8.389,8.389,0,0,1-1.658.148,7.418,7.418,0,0,1-1.882-.216A3.289,3.289,0,0,1,130.415,79a3.1,3.1,0,0,1-.846-1.336,6.478,6.478,0,0,1-.281-2.072,6.94,6.94,0,0,1,.281-2.129,3.132,3.132,0,0,1,.839-1.366,3.185,3.185,0,0,1,1.378-.729,7.4,7.4,0,0,1,1.882-.216,4.735,4.735,0,0,1,3.108.9,3.555,3.555,0,0,1,1.085,2.892V76h-6.478Zm4.379-1.028a3.136,3.136,0,0,0-.148-1.044,1.614,1.614,0,0,0-.421-.664,1.583,1.583,0,0,0-.664-.357,3.265,3.265,0,0,0-.869-.106,3.94,3.94,0,0,0-.869.091,1.771,1.771,0,0,0-.706.323,1.669,1.669,0,0,0-.482.638,2.979,2.979,0,0,0-.216,1.051v.065h4.376Z" transform="translate(-89.943 -68.248)"/><path class="a" d="M141.168,80.259a3.5,3.5,0,0,1-2.322-.679,2.8,2.8,0,0,1-.8-2.239V73.626h-1.378V71.967h1.378v-3.15h2.087v3.15h2.918v1.658h-2.918v3.632c0,.531.125.877.379,1.036a2.114,2.114,0,0,0,1.112.239h1.427v1.723h-1.886Z" transform="translate(-88.138 -68.817)"/></g><g class="c" transform="translate(58.324 87.257)"><path class="a" d="M49.486,86.639a1.514,1.514,0,0,1-1.142-1.063,3.594,3.594,0,0,1-.14-1.1,3.511,3.511,0,0,1,.152-1.131,1.505,1.505,0,0,1,1.161-1.051,4.925,4.925,0,0,1,1.962,0,1.59,1.59,0,0,1,.721.353,1.607,1.607,0,0,1,.444.7,3.511,3.511,0,0,1,.152,1.131,3.6,3.6,0,0,1-.144,1.1,1.555,1.555,0,0,1-.425.694,1.62,1.62,0,0,1-.713.368,4.884,4.884,0,0,1-2.026,0Zm.421-3.647a1,1,0,0,0-.429.163.833.833,0,0,0-.277.364,2.1,2.1,0,0,0-.129.63H51.9a1.953,1.953,0,0,0-.125-.626.837.837,0,0,0-.273-.361A.988.988,0,0,0,51.076,83a3.789,3.789,0,0,0-.581-.042A3.892,3.892,0,0,0,49.907,82.992Zm1.176,2.952a.972.972,0,0,0,.429-.178.867.867,0,0,0,.273-.372,2.143,2.143,0,0,0,.125-.634H49.072a2.062,2.062,0,0,0,.121.634.845.845,0,0,0,.273.372,1,1,0,0,0,.429.178,3.43,3.43,0,0,0,.6.046A3.354,3.354,0,0,0,51.083,85.945Z" transform="translate(-48.203 -82.184)"/><path class="a" d="M60.088,87.71V86.636H56.84V87.71h-.827V85.862h.493a2.4,2.4,0,0,0,.231-.448,2.548,2.548,0,0,0,.129-.508,5.365,5.365,0,0,0,.057-.676c.008-.258.011-.577.011-.953V82.272h3.4v3.59h.577V87.71Zm-2.376-3.355c-.015.247-.038.463-.068.653a3.073,3.073,0,0,1-.114.486,2.064,2.064,0,0,1-.156.368H59.47v-2.85H57.736V83.5C57.736,83.824,57.728,84.108,57.713,84.355Z" transform="translate(-46.294 -82.165)"/><path class="a" d="M65.429,86.639a1.514,1.514,0,0,1-1.142-1.063,3.582,3.582,0,0,1-.144-1.1,3.511,3.511,0,0,1,.152-1.131,1.505,1.505,0,0,1,1.161-1.051,4.925,4.925,0,0,1,1.962,0,1.59,1.59,0,0,1,.721.353,1.607,1.607,0,0,1,.444.7,3.511,3.511,0,0,1,.152,1.131,3.6,3.6,0,0,1-.144,1.1,1.555,1.555,0,0,1-.425.694,1.62,1.62,0,0,1-.713.368,4.866,4.866,0,0,1-2.023,0Zm.425-3.647a1,1,0,0,0-.429.163.833.833,0,0,0-.277.364,2.1,2.1,0,0,0-.129.63H67.85a1.953,1.953,0,0,0-.125-.626.837.837,0,0,0-.273-.361A.988.988,0,0,0,67.023,83a3.789,3.789,0,0,0-.581-.042A3.858,3.858,0,0,0,65.854,82.992Zm1.176,2.952a.972.972,0,0,0,.429-.178.867.867,0,0,0,.273-.372,2.143,2.143,0,0,0,.125-.634H65.019a2.062,2.062,0,0,0,.121.634.845.845,0,0,0,.273.372,1,1,0,0,0,.429.178,3.43,3.43,0,0,0,.6.046A3.354,3.354,0,0,0,67.03,85.945Z" transform="translate(-44.307 -82.184)"/><path class="a" d="M75.8,85.145a1.481,1.481,0,0,1-1.146.406H73.149v1.082h-.861V82.269h2.353a2.475,2.475,0,0,1,.694.087,1.063,1.063,0,0,1,.755.767,2.555,2.555,0,0,1,.087.729A1.856,1.856,0,0,1,75.8,85.145Zm-2.653-.33h1.359a.78.78,0,0,0,.6-.209,1.058,1.058,0,0,0,.2-.732,1.84,1.84,0,0,0-.042-.425.5.5,0,0,0-.387-.4,1.573,1.573,0,0,0-.383-.038H73.142v1.8Z" transform="translate(-42.315 -82.166)"/><path class="a" d="M88.314,86.3a1.707,1.707,0,0,1-1.157.334h-2.25V82.272h3.472v.74H85.768v.9h1.378a1.869,1.869,0,0,1,1.184.3,1.265,1.265,0,0,1,.368,1.025A1.364,1.364,0,0,1,88.314,86.3ZM85.768,85.9h1.29a.959.959,0,0,0,.573-.144.617.617,0,0,0,.194-.524.987.987,0,0,0-.038-.3.378.378,0,0,0-.129-.19.576.576,0,0,0-.239-.1,2,2,0,0,0-.368-.03H85.772V85.9Z" transform="translate(-39.231 -82.165)"/><path class="a" d="M94.332,84.427l1.34-2.156h.979l-1.9,2.941v1.423h-.865v-1.4L91.96,82.275h1Z" transform="translate(-37.507 -82.165)"/><path class="a" d="M103.479,85.145a1.481,1.481,0,0,1-1.146.406h-1.507v1.082h-.861V82.269h2.353a2.475,2.475,0,0,1,.694.087,1.146,1.146,0,0,1,.478.277,1.1,1.1,0,0,1,.273.49,2.7,2.7,0,0,1,.087.729A1.838,1.838,0,0,1,103.479,85.145Zm-2.653-.33h1.359a.78.78,0,0,0,.6-.209,1.058,1.058,0,0,0,.2-.732,1.842,1.842,0,0,0-.042-.425.5.5,0,0,0-.387-.4,1.573,1.573,0,0,0-.383-.038h-1.347v1.8Z" transform="translate(-35.55 -82.166)"/><path class="a" d="M114.871,85.862v-3.59h.861v3.59h1.431v-3.59h.861v4.364h-5.438V82.272h.861v3.59Z" transform="translate(-32.465 -82.165)"/><path class="a" d="M124.747,82.272h.619v4.364H124.5V83.691l-2.448,2.945h-.6V82.272h.854v2.971Z" transform="translate(-30.295 -82.165)"/><path class="a" d="M132.283,84.074v-1.8h.861v4.364h-.861V84.845h-2.322v1.791H129.1V82.272h.861v1.8Z" transform="translate(-28.428 -82.165)"/><path class="a" d="M137.763,85.545a.732.732,0,0,0,.247.277.907.907,0,0,0,.368.137,3.589,3.589,0,0,0,1.04-.008.862.862,0,0,0,.4-.171.834.834,0,0,0,.258-.361,2.138,2.138,0,0,0,.121-.611h-2.042V84.1H140.2a2.137,2.137,0,0,0-.125-.6.814.814,0,0,0-.258-.345.942.942,0,0,0-.395-.159,3.19,3.19,0,0,0-.535-.038,3.754,3.754,0,0,0-.5.03.919.919,0,0,0-.361.121.683.683,0,0,0-.239.258,1.241,1.241,0,0,0-.125.44h-.884a2.3,2.3,0,0,1,.182-.763,1.249,1.249,0,0,1,.41-.5,1.744,1.744,0,0,1,.638-.273,3.949,3.949,0,0,1,.869-.083,4.164,4.164,0,0,1,.949.1,1.46,1.46,0,0,1,1.119,1.051,4.5,4.5,0,0,1,.008,2.231,1.569,1.569,0,0,1-.41.694,1.542,1.542,0,0,1-.687.368,3.829,3.829,0,0,1-.968.106,4.2,4.2,0,0,1-.9-.087,1.678,1.678,0,0,1-.645-.285,1.3,1.3,0,0,1-.406-.52,2.28,2.28,0,0,1-.182-.786h.884A1.344,1.344,0,0,0,137.763,85.545Z" transform="translate(-26.557 -82.186)"/></g></g></svg>