<svg xmlns="http://www.w3.org/2000/svg" width="15.439" height="15.467" viewBox="0 0 15.439 15.467"><defs><style>.a{fill:none;stroke:#0a0a0b;stroke-linecap:round;stroke-linejoin:round;stroke-width:1.417px;opacity:0.5;}</style></defs><path class="a" d="M15.517,11.935V14.05a1.41,1.41,0,0,1-1.537,1.41A13.952,13.952,0,0,1,7.9,13.3a13.747,13.747,0,0,1-4.23-4.23A13.952,13.952,0,0,1,1.5,2.954,1.41,1.41,0,0,1,2.9,1.417H5.019a1.41,1.41,0,0,1,1.41,1.213A9.052,9.052,0,0,0,6.923,4.61,1.41,1.41,0,0,1,6.606,6.1l-.9.9a11.28,11.28,0,0,0,4.23,4.23l.9-.9a1.41,1.41,0,0,1,1.488-.317A9.052,9.052,0,0,0,14.3,10.5a1.41,1.41,0,0,1,1.213,1.431Z" transform="translate(-0.787 -0.708)"/></svg>