<svg xmlns="http://www.w3.org/2000/svg" width="46.143" height="34.607" viewBox="0 0 46.143 34.607"><defs><style>.a{fill:#f95a48;}</style></defs><g transform="translate(0 4.5)"><path class="a" d="M512.509,320.991h2.406l1.4-4.909-1.342-3.578c-.025.017-.053.03-.078.047-.083.052-.165.1-.247.146-.109.064-.218.131-.33.189-.026.014-.055.024-.082.038a6.294,6.294,0,0,1-1,.392c-.024.007-.047.017-.072.024-.115.032-.232.054-.35.082-.1.023-.2.048-.3.065-.022,0-.043.011-.066.014l1.318,2.114a.818.818,0,0,1,.093.659Zm0,0" transform="translate(-470.218 -290.883)"/><path class="a" d="M110.491,1.268H90.715a.824.824,0,0,1-.583-.241l-2.1-2.1a2.856,2.856,0,0,1-1.851.691H83.3V-2.028h2.884a1.235,1.235,0,0,0,1.236-1.236A1.236,1.236,0,0,0,86.184-4.5H81.652A1.648,1.648,0,0,0,80-2.852v18.7a5.337,5.337,0,0,0,1.612,3.79,5.087,5.087,0,0,0,1.177.864c.019.008.04.011.059.02a4.747,4.747,0,0,0,1.059.393l.053.013a4.232,4.232,0,0,0,.466.078c.032,0,.063.01.095.013a4.23,4.23,0,0,0,.494.02c.037,0,.074,0,.111-.005a4.848,4.848,0,0,0,.834-.1,5.459,5.459,0,0,0,2.429-1.305c.011-.012.028-.015.04-.026A4.926,4.926,0,0,0,89.891,16.1V13.628h1.648V16.1a6.54,6.54,0,0,1-.892,3.3H108.91a6.54,6.54,0,0,1-.892-3.3v-.824h1.648V16.1a4.927,4.927,0,0,0,1.566,3.6c.095.089.19.175.291.256.043.033.087.064.13.1.092.069.186.137.282.2.047.031.1.059.145.088.1.058.2.114.3.165l.153.074q.153.071.311.133l.164.059c.1.036.209.068.315.1.06.016.121.033.182.047.1.023.2.042.3.058.071.013.141.024.212.033s.15.013.225.019h0c.135.009.258.013.374.015s.247,0,.371-.008h0a4.639,4.639,0,0,0,.737-.12l.127-.03a4.5,4.5,0,0,0,.659-.232c.047-.021.093-.041.138-.063a4.7,4.7,0,0,0,.628-.358c.022-.014.043-.03.064-.045a5.14,5.14,0,0,0,.621-.512l.009-.007a5.265,5.265,0,0,0,1.573-3.776V10.332a9.074,9.074,0,0,0-9.064-9.064Zm0,0" transform="translate(-73.412)"/><path class="a" d="M2.09,3.02H4.944V-2.748A3.251,3.251,0,0,1,5.4-4.387a2.483,2.483,0,0,0-1.66.715L.612-.547A2.089,2.089,0,0,0,2.09,3.02Zm0,0" transform="translate(0 -0.104)"/><path class="a" d="M122.354,322.862c-.06.006-.12.007-.181.012-.122.01-.247.023-.367.025h-.155a6.15,6.15,0,0,1-.73-.048l-.076-.012a6.311,6.311,0,0,1-.806-.164.125.125,0,0,1-.036-.008v7.649h1.757l1.071-7.524a.2.2,0,0,0-.057.005C122.64,322.823,122.5,322.847,122.354,322.862Zm0,0" transform="translate(-110.116 -300.21)"/></g></svg>