<svg xmlns="http://www.w3.org/2000/svg" width="15.583" height="11.333" viewBox="0 0 15.583 11.333"><defs><style>.a{fill:#fff;}</style></defs><path class="a" d="M14.167,5.667H12.042V2.833H2.125A1.421,1.421,0,0,0,.708,4.25v7.792H2.125a2.125,2.125,0,0,0,4.25,0h4.25a2.125,2.125,0,0,0,4.25,0h1.417V8.5L14.167,5.667ZM4.25,13.1a1.063,1.063,0,1,1,1.063-1.062A1.061,1.061,0,0,1,4.25,13.1Zm9.563-6.375L15.2,8.5H12.042V6.729h1.771ZM12.75,13.1a1.063,1.063,0,1,1,1.063-1.062A1.061,1.061,0,0,1,12.75,13.1Z" transform="translate(-0.708 -2.833)"/></svg>