<svg xmlns="http://www.w3.org/2000/svg" width="39.222" height="32.063" viewBox="0 0 39.222 32.063">
  <defs>
    <style>
      .cls-1, .cls-2 {
        fill: white;
      }

      .cls-2 {
        stroke-linejoin: bevel;
      }

      .cls-3, .cls-4 {
        stroke: none;
      }

      .cls-4 {
        fill: transparent;
      }
    </style>
  </defs>
  <g id="Group_25" data-name="Group 25" transform="translate(-43.177 -24.208)">
    <path id="Path_13" data-name="Path 13" class="cls-1" d="M1.491,9.658H6.158V-9.216L12.734,9.658h3.816L23.125-9.216V9.658h4.667V-15.519h-6.4L14.676,3.56,7.9-15.519h-6.4Z" transform="translate(54.607 43.17)"/>
    <g id="Path_12" data-name="Path 12" class="cls-2" transform="translate(46 43)">
      <path class="cls-3" d="M 8.677741050720215 11.77070236206055 C 5.440192222595215 11.77070236206055 2.467483520507813 10.34536170959473 0.7240833044052124 7.957458019256592 C -0.429632693529129 6.404031753540039 -0.9403204917907715 4.94229793548584 -1.097188711166382 2.746142148971558 L -1.211958765983582 1.139272212982178 L 0.3990012407302856 1.139272212982178 L 5.270851135253906 1.139272212982178 L 6.632701396942139 1.139272212982178 L 6.763881206512451 2.494792222976685 C 6.892581462860107 3.824752330780029 7.375521183013916 4.273612022399902 8.677741050720215 4.273612022399902 C 9.599591255187988 4.273612022399902 10.58463096618652 3.86217212677002 10.58463096618652 2.707412242889404 C 10.58463096618652 2.07529878616333 10.38175773620605 1.636467337608337 9.927292823791504 1.286636829376221 C 9.341415405273438 0.8606182336807251 9.225141525268555 0.7853411436080933 6.048241138458252 -0.3816877603530884 C 4.081561088562012 -1.109347820281982 2.543351173400879 -2.187367677688599 1.473041296005249 -3.586987733840942 C 0.3754112422466278 -5.022357940673828 -0.1811387538909912 -6.721607685089111 -0.1811387538909912 -8.637537956237793 C -0.1811387538909912 -10.97332763671875 0.7354112267494202 -13.15555763244629 2.399681329727173 -14.78224754333496 C 4.055521011352539 -16.40068817138672 6.273011207580566 -17.2919979095459 8.643671035766602 -17.2919979095459 C 11.53502082824707 -17.2919979095459 14.23689079284668 -15.99922752380371 15.87115097045898 -13.83382797241211 C 16.9675407409668 -12.37198734283447 17.48450088500977 -10.84391784667969 17.60245132446289 -8.720737457275391 L 17.69040107727051 -7.137537956237793 L 16.10476112365723 -7.137537956237793 L 11.26698112487793 -7.137537956237793 L 9.88219165802002 -7.137537956237793 L 9.771760940551758 -8.517917633056641 C 9.677481651306152 -9.696308135986328 9.145951271057129 -9.794907569885254 8.609601020812988 -9.794907569885254 C 7.907201290130615 -9.794907569885254 7.520371437072754 -9.420177459716797 7.520371437072754 -8.739737510681152 C 7.520371437072754 -8.565237998962402 7.520371437072754 -8.156607627868652 8.263801574707031 -7.705237865447998 L 8.290961265563965 -7.688747882843018 L 8.317400932312012 -7.671117782592773 C 8.453910827636719 -7.580117702484131 8.615721702575684 -7.517337799072266 10.48165130615234 -6.831437587738037 L 10.72844123840332 -6.740717887878418 L 10.73826122283936 -6.737107753753662 L 10.74802112579346 -6.733357906341553 C 13.29406642913818 -5.756799221038818 14.28218269348145 -5.272534370422363 15.48521041870117 -4.154014587402344 C 16.38646507263184 -3.333019256591797 17.07621383666992 -2.37188196182251 17.53528213500977 -1.297257781028748 C 17.98830032348633 -0.2367677688598633 18.2180004119873 0.9386622309684753 18.2180004119873 2.196382284164429 C 18.2180004119873 4.802492141723633 17.23827171325684 7.220362186431885 15.4592809677124 9.004602432250977 C 13.68078136444092 10.78835201263428 11.27238082885742 11.77070236206055 8.677741050720215 11.77070236206055 Z"/>
      <path class="cls-4" d="M 8.677741050720215 10.27070236206055 C 13.20891094207764 10.27070236206055 16.7180004119873 6.761612415313721 16.7180004119873 2.196382284164429 C 16.7180004119873 0.08410222828388214 15.96849155426025 -1.687477827072144 14.46946144104004 -3.050237655639648 C 13.48146152496338 -3.970097780227661 12.69787120819092 -4.378917694091797 10.21084117889404 -5.332847595214844 C 7.894161224365234 -6.184567928314209 7.791951179504395 -6.218637943267822 7.485331058502197 -6.423057556152344 C 6.53140115737915 -7.002227783203125 6.020371437072754 -7.785807609558105 6.020371437072754 -8.739737510681152 C 6.020371437072754 -10.23876762390137 7.076501369476318 -11.29490756988525 8.609601020812988 -11.29490756988525 C 10.17677116394043 -11.29490756988525 11.13070106506348 -10.34097766876221 11.26698112487793 -8.637537956237793 L 16.10476112365723 -8.637537956237793 C 16.00256156921387 -10.4772481918335 15.59373092651367 -11.70373821258545 14.67387104034424 -12.93021774291992 C 13.31111145019531 -14.73586750030518 11.06257152557373 -15.7919979095459 8.643671035766602 -15.7919979095459 C 4.55540132522583 -15.7919979095459 1.318861246109009 -12.62359809875488 1.318861246109009 -8.637537956237793 C 1.318861246109009 -5.469127655029297 3.158581256866455 -3.050237655639648 6.565471172332764 -1.789687752723694 C 9.904221534729004 -0.563207745552063 10.07457160949707 -0.4609977602958679 10.82408142089844 0.08410222828388214 C 11.67581081390381 0.7314122319221497 12.08463096618652 1.617202281951904 12.08463096618652 2.707412242889404 C 12.08463096618652 4.513062000274658 10.68781089782715 5.773612022399902 8.677741050720215 5.773612022399902 C 6.599541187286377 5.773612022399902 5.475261211395264 4.751542091369629 5.270851135253906 2.639272212982178 L 0.3990012407302856 2.639272212982178 C 0.5352712273597717 4.547132015228271 0.9441012144088745 5.739542007446289 1.932101249694824 7.06823205947876 C 3.397061347961426 9.078291893005371 5.918161392211914 10.27070236206055 8.677741050720215 10.27070236206055 M 8.677741050720215 13.27070236206055 C 4.965367317199707 13.27070236206055 1.541981339454651 11.61751842498779 -0.4833480417728424 8.847492218017578 C -1.80506694316864 7.066325664520264 -2.416555643081665 5.328536033630371 -2.593378782272339 2.853002309799194 L 0.3990012407302856 -0.3607277870178223 L 2.776845216751099 -0.3607277870178223 C -0.08931390941143036 -2.275403499603271 -1.681138753890991 -5.176312923431396 -1.681138753890991 -8.637537956237793 C -1.681138753890991 -11.38047790527344 -0.6042287349700928 -13.9436674118042 1.351201295852661 -15.85494804382324 C 3.28895115852356 -17.74892807006836 5.878801345825195 -18.7919979095459 8.643671035766602 -18.7919979095459 C 12.00288105010986 -18.7919979095459 15.15233135223389 -17.27627754211426 17.06843185424805 -14.73744773864746 L 17.07387161254883 -14.73021793365479 C 18.35855102539063 -13.01730823516846 18.96454048156738 -11.24496746063232 19.10014152526855 -8.803937911987305 L 16.10476112365723 -5.637537956237793 L 16.07389831542969 -5.637537956237793 C 16.21488952636719 -5.518022060394287 16.35641288757324 -5.392023086547852 16.50051307678223 -5.258190155029297 C 18.60543060302734 -3.338142395019531 19.7180004119873 -0.7607483863830566 19.7180004119873 2.196382284164429 C 19.7180004119873 8.406282424926758 14.8685417175293 13.27070236206055 8.677741050720215 13.27070236206055 Z M 8.32546329498291 2.749492168426514 C 8.401378631591797 2.761910676956177 8.515861511230469 2.773612260818481 8.677741050720215 2.773612260818481 C 8.896450996398926 2.773612260818481 9.023592948913574 2.735455513000488 9.084626197814941 2.709595203399658 C 9.084629058837891 2.708874940872192 9.084630966186523 2.70814847946167 9.084630966186523 2.707412242889404 C 9.084630966186523 2.604457378387451 9.072660446166992 2.544284343719482 9.066071510314941 2.522867441177368 C 9.06037712097168 2.516525745391846 9.047699928283691 2.503545999526978 9.024392127990723 2.484755754470825 C 8.752745628356934 2.287699699401855 8.592857360839844 2.183887243270874 7.684719562530518 1.830819249153137 L 8.256900787353516 2.350302219390869 C 8.275174140930176 2.539111137390137 8.302498817443848 2.667708158493042 8.32546329498291 2.749492168426514 Z"/>
    </g>
  </g>
</svg>
