<svg xmlns="http://www.w3.org/2000/svg" width="135" height="30.989" viewBox="0 0 135 30.989"><defs><style>.a{fill:#6a67d3;}.b{fill:#f95a48;}.c{fill:#0a0a0b;}.d{opacity:0.5;}</style></defs><g transform="translate(-6.8 -61.441)"><path class="a" d="M42.25,90.307a2.121,2.121,0,1,1-2.119-2.122A2.123,2.123,0,0,1,42.25,90.307ZM25.585,87.19a2.619,2.619,0,1,0,0,5.239A2.575,2.575,0,0,0,28.2,89.865,2.665,2.665,0,0,0,25.585,87.19Zm19.45-18.727a2.117,2.117,0,0,0-1.574-.787l-1.988-.137L40.4,69.351l2.671.079c1,0,.82,1.067.619,2.034a43.818,43.818,0,0,1-1.738,6.706,3.87,3.87,0,0,1-3.9,2.345H26.488a1.715,1.715,0,0,1-1.638-1.327,38.585,38.585,0,0,1-1.134-5.459,31.957,31.957,0,0,0-.976-3.775.826.826,0,0,1,.744-1.113l11.054.332,1.729-1.994-14.04-.964a1.873,1.873,0,0,1-1.509-1,15.477,15.477,0,0,0-1.674-2.568,3.18,3.18,0,0,0-2.592-1.2H14.275a1.891,1.891,0,0,0-1.842,1.872A1.862,1.862,0,0,0,14.2,65.3h2.287a.979.979,0,0,1,.8.415,23.709,23.709,0,0,1,2.141,3.891c2.51,5.477,2.47,10.5,4.312,13A10.468,10.468,0,0,0,25.8,84.754a11.966,11.966,0,0,0,5.08,2.165,20.055,20.055,0,0,0,5.236.241q1.294-.1,2.568-.317a25,25,0,0,0,2.552-.57,1,1,0,0,0,.582-1.36.887.887,0,0,0-1.022-.534l-.009,0a22.983,22.983,0,0,1-2.363.427c-.8.1-1.607.171-2.409.2a18.324,18.324,0,0,1-4.727-.406,9.912,9.912,0,0,1-4.111-1.924s8.453-.3,11.323-.4a5.129,5.129,0,0,0,4.94-3.455c.213-.448.881-3.434,1.723-7.02C45.526,70.293,45.611,69.211,45.035,68.464Z"/><path class="b" d="M41.3,63.426a.773.773,0,0,1,.665,1.168L34.425,77.319l-.1.168a2.012,2.012,0,0,1-1.6.982c-.043,0-.085,0-.128,0a2,2,0,0,1-1.68-.909l-3.333-5.7a.9.9,0,0,1,.259-1.247.886.886,0,0,1,.436-.146l.058,0a.9.9,0,0,1,.5.152L32.215,73.5l8.517-9.825a.766.766,0,0,1,.518-.247Z"/><path class="a" d="M16.184,69.36h5.437V74.8H16.184ZM15.54,81.829h4.373V77.457H15.54ZM10.06,75.6h3.681V71.919H10.06Zm.954,4.58h2.723V77.457H11.015ZM6.8,77.493H8.694V75.6H6.8Z"/><path class="a" d="M51.612,73.962h-1.04v4.05H48.761V68.82h1.811v4.69l4.1-4.69h2.159l-3.851,4.236,4.129,4.955H54.8Z"/><path class="a" d="M62.176,72.7a2.467,2.467,0,0,0-1.147-.213,1.963,1.963,0,0,0-1.147.293,1.13,1.13,0,0,0-.439.933v4.3H57.766V68.82h1.677V72.59h.174a1.936,1.936,0,0,1,.781-1.08,2.444,2.444,0,0,1,1.366-.36,4.561,4.561,0,0,1,1.019.107,1.953,1.953,0,0,1,.787.366,1.692,1.692,0,0,1,.506.7,2.96,2.96,0,0,1,.18,1.107v4.583H62.578V73.59A.925.925,0,0,0,62.176,72.7Z"/><path class="a" d="M67.5,76.667a1.974,1.974,0,0,0,1.025.213,3.843,3.843,0,0,0,.625-.052,1.573,1.573,0,0,0,.552-.2,1.209,1.209,0,0,0,.406-.4,1.288,1.288,0,0,0,.174-.653V71.351h1.677v6.66H70.284V76.773H70.1a1.9,1.9,0,0,1-.854,1.08,2.724,2.724,0,0,1-1.412.36,4.168,4.168,0,0,1-.973-.107,1.771,1.771,0,0,1-.747-.366,1.728,1.728,0,0,1-.479-.7,3.032,3.032,0,0,1-.174-1.107V71.351h1.692v4.422A.988.988,0,0,0,67.5,76.667Z"/><path class="a" d="M77.972,72.87l-.906-.012a3.382,3.382,0,0,0-1.019.085,1.549,1.549,0,0,0-.646.338,1.288,1.288,0,0,0-.348.573,2.713,2.713,0,0,0-.107.787v3.37H73.27v-6.66h1.677v1.732h.174a3.982,3.982,0,0,1,.287-.747,1.736,1.736,0,0,1,.427-.54,1.772,1.772,0,0,1,.64-.332,3.311,3.311,0,0,1,.939-.113h.558V72.87Z"/><path class="a" d="M80.119,75.054v.012a2.761,2.761,0,0,0,.146.887,1.273,1.273,0,0,0,.951.845,3.433,3.433,0,0,0,.765.079,2.6,2.6,0,0,0,1.119-.213,1.024,1.024,0,0,0,.546-.854h1.677A2.889,2.889,0,0,1,85,76.95a2.127,2.127,0,0,1-.686.738,2.873,2.873,0,0,1-1.012.4,6.74,6.74,0,0,1-1.333.119,5.961,5.961,0,0,1-1.513-.174,2.643,2.643,0,0,1-1.113-.579,2.492,2.492,0,0,1-.68-1.073,5.205,5.205,0,0,1-.226-1.665A5.577,5.577,0,0,1,78.661,73a2.517,2.517,0,0,1,.674-1.1,2.559,2.559,0,0,1,1.107-.585,5.944,5.944,0,0,1,1.513-.174,3.8,3.8,0,0,1,2.5.726,2.857,2.857,0,0,1,.872,2.324v.854H80.119Zm3.516-.826a2.52,2.52,0,0,0-.119-.839,1.3,1.3,0,0,0-.338-.534,1.273,1.273,0,0,0-.534-.287,2.608,2.608,0,0,0-.7-.085,3.166,3.166,0,0,0-.7.073,1.423,1.423,0,0,0-.567.259,1.341,1.341,0,0,0-.387.512,2.394,2.394,0,0,0-.174.845v.052h3.516Z"/><path class="a" d="M87.977,75.054v.012a2.761,2.761,0,0,0,.146.887,1.273,1.273,0,0,0,.951.845,3.433,3.433,0,0,0,.765.079,2.6,2.6,0,0,0,1.119-.213,1.024,1.024,0,0,0,.546-.854h1.677a2.889,2.889,0,0,1-.326,1.141,2.127,2.127,0,0,1-.686.738,2.873,2.873,0,0,1-1.012.4,6.74,6.74,0,0,1-1.333.119,5.961,5.961,0,0,1-1.513-.174,2.643,2.643,0,0,1-1.113-.579,2.492,2.492,0,0,1-.68-1.073,5.205,5.205,0,0,1-.226-1.665A5.577,5.577,0,0,1,86.52,73a2.517,2.517,0,0,1,.674-1.1,2.559,2.559,0,0,1,1.107-.585,5.944,5.944,0,0,1,1.513-.174,3.8,3.8,0,0,1,2.5.726,2.857,2.857,0,0,1,.872,2.324v.854H87.977Zm3.516-.826a2.52,2.52,0,0,0-.119-.839,1.3,1.3,0,0,0-.338-.534,1.272,1.272,0,0,0-.534-.287,2.608,2.608,0,0,0-.7-.085,3.166,3.166,0,0,0-.7.073,1.423,1.423,0,0,0-.567.259,1.341,1.341,0,0,0-.387.512,2.394,2.394,0,0,0-.174.845v.052h3.516Z"/><path class="c" d="M99.483,78.012H97.671V68.82h1.384l3.745,4.169,3.69-4.169h1.372v9.191h-1.811V71.656L102.773,75.2l-3.29-3.571Z"/><path class="c" d="M109.647,77.7a1.9,1.9,0,0,1-.653-1.592,2.273,2.273,0,0,1,.128-.753,1.64,1.64,0,0,1,.427-.653,2.151,2.151,0,0,1,.82-.46,4.13,4.13,0,0,1,1.293-.174c.265,0,.5,0,.7.006s.387.012.558.021l.5.027.518.027v-.534a1.016,1.016,0,0,0-.354-.866,1.976,1.976,0,0,0-1.165-.265,2.189,2.189,0,0,0-1.086.213,1.146,1.146,0,0,0-.473.866h-1.653a3.3,3.3,0,0,1,.3-1.147,1.971,1.971,0,0,1,.634-.747,2.592,2.592,0,0,1,.979-.4,6.655,6.655,0,0,1,1.327-.119,4.1,4.1,0,0,1,2.339.573,2.117,2.117,0,0,1,.833,1.878v4.41H113.94V76.825h-.174a1.841,1.841,0,0,1-.893,1.046,3.145,3.145,0,0,1-1.491.338A2.732,2.732,0,0,1,109.647,77.7Zm3.138-.826a1.613,1.613,0,0,0,.579-.22,1.284,1.284,0,0,0,.412-.427,1.305,1.305,0,0,0,.159-.68v-.427c-.311-.018-.6-.03-.872-.04s-.518-.012-.738-.012a3.736,3.736,0,0,0-.854.079,1.291,1.291,0,0,0-.485.207.622.622,0,0,0-.22.293,1.116,1.116,0,0,0-.052.354.772.772,0,0,0,.348.726,2.113,2.113,0,0,0,1.052.207A3.76,3.76,0,0,0,112.785,76.871Z"/><path class="c" d="M121.582,72.87l-.906-.012a3.382,3.382,0,0,0-1.019.085,1.549,1.549,0,0,0-.646.338,1.288,1.288,0,0,0-.348.573,2.713,2.713,0,0,0-.107.787v3.37H116.88v-6.66h1.677v1.732h.174a3.982,3.982,0,0,1,.287-.747,1.736,1.736,0,0,1,.427-.54,1.773,1.773,0,0,1,.64-.332,3.311,3.311,0,0,1,.939-.113h.558V72.87Z"/><path class="c" d="M126.922,71.351h1.985l-2.693,2.985,2.851,3.678h-1.973l-2.159-2.9h-.906v2.9h-1.665V68.823h1.665v5.9Z"/><path class="c" d="M130.972,75.054v.012a2.761,2.761,0,0,0,.146.887,1.273,1.273,0,0,0,.951.845,3.433,3.433,0,0,0,.765.079,2.6,2.6,0,0,0,1.119-.213,1.024,1.024,0,0,0,.546-.854h1.677a2.889,2.889,0,0,1-.326,1.141,2.127,2.127,0,0,1-.686.738,2.873,2.873,0,0,1-1.012.4,6.74,6.74,0,0,1-1.333.119,5.961,5.961,0,0,1-1.513-.174,2.643,2.643,0,0,1-1.113-.579,2.492,2.492,0,0,1-.68-1.073,5.205,5.205,0,0,1-.226-1.665A5.577,5.577,0,0,1,129.514,73a2.517,2.517,0,0,1,.674-1.1,2.56,2.56,0,0,1,1.107-.585,5.944,5.944,0,0,1,1.513-.174,3.8,3.8,0,0,1,2.5.726,2.857,2.857,0,0,1,.872,2.324v.854h-5.205Zm3.519-.826a2.52,2.52,0,0,0-.119-.839,1.3,1.3,0,0,0-.338-.534,1.272,1.272,0,0,0-.534-.287,2.624,2.624,0,0,0-.7-.085,3.166,3.166,0,0,0-.7.073,1.423,1.423,0,0,0-.567.259,1.341,1.341,0,0,0-.387.512,2.394,2.394,0,0,0-.174.845v.052h3.516Z"/><path class="c" d="M140.285,78.012a2.81,2.81,0,0,1-1.866-.546,2.246,2.246,0,0,1-.64-1.8V72.681h-1.107V71.348h1.107V68.817h1.677v2.531H141.8v1.333h-2.345V75.6c0,.427.1.7.3.833a1.7,1.7,0,0,0,.893.192H141.8v1.384h-1.516Z"/><g class="d"><path class="c" d="M49.234,85.766a1.217,1.217,0,0,1-.918-.854,2.888,2.888,0,0,1-.113-.884,2.821,2.821,0,0,1,.122-.909,1.21,1.21,0,0,1,.933-.845,3.958,3.958,0,0,1,1.577,0,1.278,1.278,0,0,1,.579.284,1.292,1.292,0,0,1,.357.561,2.821,2.821,0,0,1,.122.909,2.892,2.892,0,0,1-.116.884,1.249,1.249,0,0,1-.342.558,1.3,1.3,0,0,1-.573.3,3.925,3.925,0,0,1-1.628,0Zm.338-2.931a.806.806,0,0,0-.345.131A.67.67,0,0,0,49,83.26a1.69,1.69,0,0,0-.1.506h2.275a1.569,1.569,0,0,0-.1-.5.673.673,0,0,0-.22-.29.794.794,0,0,0-.345-.134,3.045,3.045,0,0,0-.467-.034A3.128,3.128,0,0,0,49.572,82.836Zm.945,2.372a.781.781,0,0,0,.345-.143.7.7,0,0,0,.22-.3,1.722,1.722,0,0,0,.1-.509H48.9a1.657,1.657,0,0,0,.1.509.679.679,0,0,0,.22.3.8.8,0,0,0,.345.143,2.756,2.756,0,0,0,.479.037A2.7,2.7,0,0,0,50.518,85.208Z"/><path class="c" d="M59.288,86.642v-.863h-2.61v.863h-.665V85.156h.4a1.929,1.929,0,0,0,.186-.36,2.048,2.048,0,0,0,.1-.409,4.311,4.311,0,0,0,.046-.543c.006-.207.009-.464.009-.765v-.808h2.732v2.885h.464v1.485Zm-1.909-2.7c-.012.2-.03.372-.055.525a2.469,2.469,0,0,1-.091.39,1.659,1.659,0,0,1-.125.3h1.683v-2.29H57.4v.39C57.4,83.519,57.391,83.748,57.379,83.946Z"/><path class="c" d="M65.176,85.766a1.217,1.217,0,0,1-.918-.854,2.878,2.878,0,0,1-.116-.884,2.821,2.821,0,0,1,.122-.909,1.21,1.21,0,0,1,.933-.845,3.958,3.958,0,0,1,1.577,0,1.278,1.278,0,0,1,.579.284,1.292,1.292,0,0,1,.357.561,2.821,2.821,0,0,1,.122.909,2.892,2.892,0,0,1-.116.884,1.249,1.249,0,0,1-.342.558,1.3,1.3,0,0,1-.573.3,3.91,3.91,0,0,1-1.625,0Zm.342-2.931a.806.806,0,0,0-.345.131.67.67,0,0,0-.223.293,1.69,1.69,0,0,0-.1.506h2.275a1.569,1.569,0,0,0-.1-.5.673.673,0,0,0-.22-.29.794.794,0,0,0-.345-.134,3.045,3.045,0,0,0-.467-.034A3.1,3.1,0,0,0,65.518,82.836Zm.945,2.372a.781.781,0,0,0,.345-.143.7.7,0,0,0,.22-.3,1.722,1.722,0,0,0,.1-.509H64.847a1.657,1.657,0,0,0,.1.509.679.679,0,0,0,.22.3.8.8,0,0,0,.345.143,2.756,2.756,0,0,0,.479.037A2.7,2.7,0,0,0,66.463,85.208Z"/><path class="c" d="M75.111,84.58a1.19,1.19,0,0,1-.921.326H72.98v.869h-.692V82.269h1.891a1.989,1.989,0,0,1,.558.07.854.854,0,0,1,.607.616,2.053,2.053,0,0,1,.07.586A1.492,1.492,0,0,1,75.111,84.58Zm-2.132-.265h1.092a.627.627,0,0,0,.479-.168.85.85,0,0,0,.159-.589,1.479,1.479,0,0,0-.034-.342.4.4,0,0,0-.311-.32,1.264,1.264,0,0,0-.308-.03H72.974v1.448Z"/><path class="c" d="M87.645,85.51a1.371,1.371,0,0,1-.93.268H84.906V82.272H87.7v.595H85.6v.723h1.107a1.5,1.5,0,0,1,.951.244,1.016,1.016,0,0,1,.3.823A1.1,1.1,0,0,1,87.645,85.51ZM85.6,85.184h1.037a.77.77,0,0,0,.46-.116.5.5,0,0,0,.156-.421.793.793,0,0,0-.03-.244.3.3,0,0,0-.1-.152.463.463,0,0,0-.192-.079,1.6,1.6,0,0,0-.3-.024H85.6v1.037Z"/><path class="c" d="M93.866,84l1.076-1.732h.787L94.2,84.635v1.144h-.7V84.656L91.96,82.275h.8Z"/><path class="c" d="M102.788,84.58a1.19,1.19,0,0,1-.921.326h-1.211v.869h-.692V82.269h1.891a1.989,1.989,0,0,1,.558.07.921.921,0,0,1,.384.223.884.884,0,0,1,.22.393,2.168,2.168,0,0,1,.07.586A1.477,1.477,0,0,1,102.788,84.58Zm-2.132-.265h1.092a.627.627,0,0,0,.479-.168.85.85,0,0,0,.159-.589,1.48,1.48,0,0,0-.034-.342.4.4,0,0,0-.311-.32,1.264,1.264,0,0,0-.308-.03h-1.083v1.448Z"/><path class="c" d="M114.422,85.156V82.272h.692v2.885h1.15V82.272h.692v3.507h-4.37V82.272h.692v2.885Z"/><path class="c" d="M124.1,82.272h.5v3.507h-.692V83.412l-1.967,2.366h-.479V82.272h.686v2.388Z"/><path class="c" d="M131.658,83.72V82.272h.692v3.507h-.692V84.339h-1.866v1.439H129.1V82.272h.692V83.72Z"/><path class="c" d="M137.565,84.885a.588.588,0,0,0,.2.223.729.729,0,0,0,.3.11,2.884,2.884,0,0,0,.836-.006.693.693,0,0,0,.32-.137.67.67,0,0,0,.207-.29,1.718,1.718,0,0,0,.1-.491h-1.641v-.57h1.641a1.717,1.717,0,0,0-.1-.485.654.654,0,0,0-.207-.278.757.757,0,0,0-.317-.128,2.564,2.564,0,0,0-.43-.03,3.016,3.016,0,0,0-.4.024.739.739,0,0,0-.29.1.549.549,0,0,0-.192.207,1,1,0,0,0-.1.354h-.711a1.846,1.846,0,0,1,.146-.613,1,1,0,0,1,.329-.4,1.4,1.4,0,0,1,.512-.22,3.173,3.173,0,0,1,.7-.067,3.346,3.346,0,0,1,.762.079,1.173,1.173,0,0,1,.9.845,3.619,3.619,0,0,1,.006,1.793,1.26,1.26,0,0,1-.329.558,1.239,1.239,0,0,1-.552.3,3.077,3.077,0,0,1-.778.085,3.375,3.375,0,0,1-.723-.07,1.348,1.348,0,0,1-.518-.229,1.043,1.043,0,0,1-.326-.418,1.832,1.832,0,0,1-.146-.631h.711A1.08,1.08,0,0,0,137.565,84.885Z"/></g></g></svg>